<?xml version="1.0" standalone="no"?>
<!DOCTYPE svg PUBLIC "-//W3C//DTD SVG 20010904//EN"
 "http://www.w3.org/TR/2001/REC-SVG-20010904/DTD/svg10.dtd">
<svg version="1.0" xmlns="http://www.w3.org/2000/svg"
 width="428.000000pt" height="426.000000pt" viewBox="0 0 428.000000 426.000000"
 preserveAspectRatio="xMidYMid meet">

<g transform="translate(0.000000,426.000000) scale(0.100000,-0.100000)"
fill="#000000" stroke="none">
<path d="M0 2130 l0 -2130 2140 0 2140 0 0 2130 0 2130 -2140 0 -2140 0 0
-2130z m1650 1431 c0 -5 -7 -12 -16 -15 -14 -5 -15 -4 -4 9 14 17 20 19 20 6z
m-170 -59 c0 -25 1 -25 14 -6 19 25 27 15 17 -22 -6 -23 -13 -29 -37 -29 -16
-1 -29 -5 -30 -10 -1 -14 -16 -69 -21 -78 -2 -4 -8 -5 -13 -2 -5 3 0 21 11 40
13 21 16 35 9 35 -6 0 -18 -16 -26 -35 -8 -19 -18 -35 -23 -35 -8 0 -34 -55
-47 -100 -4 -14 -14 -31 -23 -38 -14 -12 -13 -13 7 -9 12 3 22 2 22 -2 0 -13
-24 -31 -42 -31 -17 0 -23 -12 -19 -34 1 -5 -4 -13 -11 -17 -9 -6 -10 -9 -1
-9 7 0 17 8 23 18 10 16 11 16 8 -2 -2 -10 -13 -25 -25 -34 -22 -14 -23 -13
-23 19 0 59 90 319 111 319 5 0 8 3 6 8 -2 4 2 21 9 37 9 21 13 24 14 11 0
-15 3 -16 15 -6 8 7 15 20 15 29 0 14 7 17 30 13 24 -3 30 -9 30 -30z m350
-154 c41 -9 110 -12 451 -18 58 -1 115 2 125 8 12 6 42 7 79 1 33 -4 70 -6 81
-3 12 3 35 -1 51 -9 16 -9 45 -18 65 -22 19 -4 51 -20 70 -35 29 -24 38 -41
51 -97 9 -37 16 -101 15 -142 0 -59 4 -79 21 -102 12 -15 21 -33 21 -38 0 -6
15 -35 34 -64 28 -43 39 -76 55 -163 29 -166 41 -262 41 -341 0 -101 14 -130
38 -78 18 38 14 96 -7 139 -27 53 -36 136 -21 191 11 40 16 45 41 45 36 0 69
-32 69 -67 0 -25 -1 -25 -13 -9 -16 22 -46 15 -65 -14 -10 -17 -9 -34 8 -101
26 -99 27 -156 6 -197 -22 -43 -21 -85 2 -80 18 4 29 48 33 148 2 50 19 -161
18 -235 0 -36 -35 -78 -48 -57 -4 7 -15 10 -24 6 -13 -5 -17 0 -17 20 0 19 5
26 20 26 25 0 25 14 0 38 -11 10 -21 34 -22 55 -2 20 -5 37 -8 37 -7 0 -42
-191 -39 -215 5 -47 -2 -135 -11 -135 -5 0 -10 8 -10 18 0 10 -5 23 -12 30 -9
9 -9 18 0 37 13 28 5 33 -13 8 -15 -20 -35 -9 -35 21 0 13 -9 31 -20 41 -11
10 -20 26 -20 36 0 10 -9 21 -20 24 -11 3 -20 11 -20 16 0 5 -9 9 -19 9 -12 0
-21 9 -25 24 -3 14 -16 28 -27 31 -16 5 -18 9 -9 15 18 11 4 57 -20 65 -30 9
-25 17 31 50 42 25 49 33 44 52 -3 13 -1 23 4 23 5 0 8 8 7 18 0 11 5 16 15
14 9 -1 19 4 23 13 3 8 12 15 21 15 9 0 15 6 13 13 -1 6 1 25 5 40 6 22 1 44
-23 91 -34 71 -36 80 -15 72 39 -15 7 42 -69 122 -33 35 -46 42 -78 42 -21 0
-38 5 -38 10 0 6 -10 8 -22 5 -13 -3 -44 -6 -69 -8 -25 -2 -51 -7 -57 -11 -7
-4 -12 -3 -12 2 0 5 -18 12 -39 16 -22 3 -41 12 -44 18 -3 10 -9 8 -24 -4 -11
-10 -28 -18 -38 -18 -10 0 -33 -5 -51 -12 -26 -9 -39 -9 -60 0 -21 10 -29 10
-42 0 -12 -10 -16 -10 -19 -1 -4 10 -10 10 -24 2 -26 -14 -78 -2 -107 24 l-22
21 -15 -21 c-10 -14 -22 -19 -38 -16 -13 3 -41 -3 -63 -12 -29 -13 -64 -17
-136 -16 -54 1 -103 -2 -110 -8 -60 -46 -108 -97 -108 -112 0 -11 -4 -19 -10
-19 -5 0 -10 -7 -10 -15 0 -8 6 -12 14 -9 9 4 20 -5 30 -24 14 -28 14 -31 -9
-62 -13 -18 -40 -44 -60 -58 -38 -27 -45 -42 -19 -42 10 0 14 -6 11 -14 -4
-11 4 -14 36 -13 29 2 42 7 43 17 1 8 2 19 3 25 2 18 26 -16 26 -39 1 -18 -4
-22 -21 -18 -27 5 -43 -17 -20 -30 9 -5 16 -18 16 -29 0 -11 7 -22 15 -25 8
-4 15 -10 15 -15 0 -5 10 -26 23 -47 30 -49 25 -87 -15 -108 -27 -14 -29 -19
-23 -51 4 -21 2 -39 -4 -42 -14 -9 -24 -111 -12 -125 5 -6 19 -45 31 -86 12
-41 30 -91 40 -110 10 -19 21 -55 25 -80 4 -25 16 -57 26 -72 11 -14 19 -33
19 -42 0 -8 8 -20 18 -25 11 -7 13 -10 3 -11 -11 0 -11 -3 0 -17 8 -9 13 -19
11 -22 -2 -3 1 -7 7 -9 6 -2 10 5 9 15 -3 38 14 83 33 83 23 0 34 37 26 86 -7
42 -3 40 75 -36 26 -25 63 -60 82 -79 42 -39 48 -78 14 -77 -17 1 -24 -5 -26
-22 -3 -18 -8 -21 -28 -16 -18 5 -24 2 -24 -11 0 -18 44 -65 60 -65 5 0 7 -6
4 -14 -4 -10 5 -16 25 -21 39 -8 50 -25 22 -32 -12 -3 -21 -9 -21 -14 0 -5 -7
-9 -15 -9 -8 0 -15 5 -15 10 0 6 -11 10 -25 10 -14 0 -25 5 -25 10 0 6 -11 8
-25 4 -18 -4 -25 -2 -25 7 0 8 -15 20 -32 27 -18 7 -41 18 -50 23 -10 5 -26 9
-35 9 -15 0 -16 2 -3 10 12 8 13 12 2 19 -8 4 -13 11 -13 15 4 30 -1 36 -29
33 -17 -2 -36 -9 -41 -14 -6 -6 -20 -8 -32 -5 -20 5 -20 6 -1 14 15 6 13 7 -9
4 -23 -3 -38 5 -73 38 -24 23 -44 46 -44 50 0 4 -9 21 -20 36 -26 36 -88 161
-107 214 -7 22 -20 83 -28 136 -9 52 -19 111 -23 130 -7 31 -9 32 -14 13 -9
-34 -66 -32 -99 3 -23 24 -24 34 -31 192 -3 92 -9 178 -13 192 -5 24 -5 24 4
2 6 -12 14 -52 17 -89 8 -73 34 -155 49 -154 20 0 16 31 -11 70 -26 40 -26 43
-16 114 7 39 14 99 18 133 6 59 5 61 -26 88 -46 38 -55 30 -53 -45 2 -44 0
-59 -7 -49 -5 8 -10 43 -10 77 0 77 15 95 76 92 24 -2 45 -1 48 2 2 2 0 42 -5
89 -14 119 -20 313 -11 326 4 6 18 15 32 19 24 8 24 7 7 -18 -21 -32 -22 -47
-2 -47 8 0 15 -7 15 -15 0 -8 5 -15 10 -15 18 0 10 -29 -10 -35 -11 -3 -20
-11 -20 -17 0 -7 5 -7 14 1 7 6 22 8 31 4 14 -5 17 -3 12 10 -3 9 -2 19 4 22
5 4 3 13 -6 21 -21 21 -19 37 9 63 14 13 22 29 19 37 -3 7 8 24 23 38 l29 24
-30 -6 c-28 -5 -29 -4 -16 14 22 29 123 125 150 142 13 9 45 17 71 17 30 1 57
8 76 22 16 12 45 23 64 26 19 2 40 4 45 5 6 1 30 -4 55 -10z m-385 -32 c0 -15
-5 -22 -12 -19 -16 6 -16 16 -1 31 7 7 12 12 13 12 0 0 0 -11 0 -24z m-40 -6
c3 -5 -1 -10 -10 -10 -9 0 -13 5 -10 10 3 6 8 10 10 10 2 0 7 -4 10 -10z m-25
-31 c0 -5 -7 -9 -15 -9 -15 0 -20 12 -9 23 8 8 24 -1 24 -14z m757 -766 c13
-14 28 -20 38 -17 13 5 15 2 9 -20 -4 -16 -2 -26 5 -26 6 0 11 8 11 17 0 13 3
14 12 5 10 -10 10 -17 0 -33 -10 -15 -10 -29 -2 -59 6 -22 14 -40 18 -40 11 0
11 -54 0 -67 -6 -8 -3 -15 11 -23 12 -6 21 -17 21 -25 0 -9 10 -15 24 -15 15
0 26 -7 29 -20 3 -11 13 -20 22 -20 15 0 17 -7 12 -39 -6 -46 8 -56 49 -40 15
5 28 8 29 7 32 -40 33 -125 1 -99 -6 5 -15 11 -21 13 -5 1 -9 6 -8 10 2 4 -7
4 -20 -1 -45 -17 -131 8 -126 36 4 22 -4 29 -35 31 -32 2 -115 -31 -117 -47 0
-3 -2 -15 -3 -26 -6 -43 -18 -63 -47 -75 -36 -15 -138 -7 -150 12 -21 32 1
148 27 148 18 0 27 36 14 60 -6 11 -17 20 -25 20 -10 0 -12 6 -8 18 10 26 40
55 51 48 5 -3 27 12 49 33 36 35 41 47 53 114 7 42 10 92 7 111 -3 19 -3 36
-1 39 10 10 50 -7 71 -30z m-470 -49 c-3 -3 -12 -4 -19 -1 -8 3 -5 6 6 6 11 1
17 -2 13 -5z m1430 -86 c-3 -8 -6 -5 -6 6 -1 11 2 17 5 13 3 -3 4 -12 1 -19z
m-770 -190 c-3 -7 -5 -2 -5 12 0 14 2 19 5 13 2 -7 2 -19 0 -25z m-707 -107
c0 -6 -4 -13 -10 -16 -5 -3 -10 1 -10 9 0 9 5 16 10 16 6 0 10 -4 10 -9z
m1322 -286 c-2 -14 -8 -25 -13 -25 -12 0 -11 7 1 31 14 26 18 24 12 -6z
m-1033 -21 c21 -4 31 -12 31 -25 0 -20 -28 -23 -72 -7 -30 11 -36 23 -15 31
18 8 21 8 56 1z m81 -24 c0 -5 -7 -10 -15 -10 -8 0 -15 5 -15 10 0 6 7 10 15
10 8 0 15 -4 15 -10z m931 -23 c-8 -8 -11 -7 -11 4 0 20 13 34 18 19 3 -7 -1
-17 -7 -23z m-941 -79 c0 -21 -5 -28 -19 -28 -14 0 -21 10 -25 35 -4 20 -4 40
0 46 11 18 44 -22 44 -53z m409 20 c0 -27 -2 -29 -8 -13 -5 11 -6 26 -4 33 8
21 13 13 12 -20z m-349 3 c5 -11 10 -31 10 -45 0 -34 -33 -35 -48 -2 -22 48
14 92 38 47z m87 -3 c28 -10 33 -17 33 -45 0 -27 -5 -34 -27 -39 -34 -9 -57 6
-61 40 -4 30 3 56 14 56 4 0 23 -5 41 -12z m131 -39 c-2 -27 -8 -35 -26 -37
-55 -8 -71 50 -19 72 39 16 49 9 45 -35z m72 27 c0 -13 -7 -29 -15 -36 -17
-14 -20 -3 -9 38 8 29 24 28 24 -2z m590 -318 c41 -20 85 -48 97 -62 19 -22
20 -30 12 -63 -14 -52 -32 -93 -41 -93 -5 0 -8 -8 -8 -18 0 -17 -51 -72 -67
-72 -5 0 -14 -17 -19 -37 -7 -31 -14 -39 -36 -41 -27 -3 -33 -14 -30 -55 1
-10 -3 -15 -8 -12 -6 3 -10 14 -10 23 0 14 -2 14 -9 3 -7 -11 -11 -10 -20 7
-6 11 -11 28 -11 37 0 8 -10 20 -22 26 -19 8 -15 9 19 5 l42 -4 -21 29 -22 29
-23 -22 c-13 -13 -23 -33 -23 -50 0 -17 -5 -28 -14 -28 -18 0 -29 45 -16 70 5
10 10 31 10 47 0 29 38 83 59 83 16 0 14 -17 -4 -24 -17 -6 -20 -32 -4 -41 12
-8 59 33 59 52 0 7 -6 13 -13 13 -8 0 -19 11 -25 25 -12 26 -26 32 -37 15 -10
-17 -24 -2 -18 20 3 11 12 20 19 20 8 0 16 16 20 40 4 22 11 40 17 40 6 0 7 3
4 7 -4 3 -2 12 4 20 7 8 8 13 1 13 -5 0 -8 9 -5 20 3 11 10 20 15 20 5 0 8 6
7 13 -1 6 6 30 17 52 l19 40 5 -55 5 -55 75 -37z m-1373 35 c13 -28 36 -60 86
-119 15 -17 27 -37 27 -43 0 -6 4 -11 8 -11 5 0 17 -16 28 -35 10 -19 31 -44
46 -55 22 -16 27 -26 22 -45 -5 -22 -2 -26 25 -31 16 -4 37 -17 46 -30 12 -19
21 -23 42 -18 16 4 24 3 20 -3 -9 -14 40 -63 79 -79 19 -8 34 -18 34 -23 0 -6
9 -13 20 -16 24 -8 27 -25 4 -25 -11 0 -14 -5 -10 -16 5 -13 2 -15 -16 -10
-13 3 -40 6 -60 6 -24 0 -38 5 -38 13 -1 16 -46 67 -60 67 -5 0 -10 -7 -10
-15 0 -8 -4 -15 -10 -15 -5 0 -10 -4 -10 -8 0 -11 35 -49 52 -55 9 -4 7 -11
-9 -25 l-22 -20 30 -15 31 -14 -28 -27 c-16 -14 -34 -26 -41 -26 -20 0 -15
-20 5 -21 9 -1 4 -4 -13 -8 -22 -5 -35 -2 -49 11 -11 10 -25 18 -32 18 -6 0
-54 40 -106 90 -145 137 -258 318 -258 414 0 40 23 71 90 122 39 30 50 44 50
66 0 36 12 36 27 1z m140 -39 c-3 -3 -12 -4 -19 -1 -8 3 -5 6 6 6 11 1 17 -2
13 -5z m348 -54 c3 -5 -1 -10 -10 -10 -9 0 -13 5 -10 10 3 6 8 10 10 10 2 0 7
-4 10 -10z m-85 -85 c0 -8 -6 -15 -14 -15 -17 0 -28 14 -19 24 12 12 33 6 33
-9z m805 -315 c3 -5 1 -10 -4 -10 -6 0 -11 5 -11 10 0 6 2 10 4 10 3 0 8 -4
11 -10z"/>
<path d="M2018 3093 c-28 -7 -21 -21 7 -15 14 2 25 8 25 13 0 9 -4 10 -32 2z"/>
<path d="M2400 3045 c0 -8 7 -15 16 -15 14 0 14 3 4 15 -7 8 -14 15 -16 15 -2
0 -4 -7 -4 -15z"/>
<path d="M1970 2809 c0 -5 5 -7 10 -4 6 3 10 8 10 11 0 2 -4 4 -10 4 -5 0 -10
-5 -10 -11z"/>
<path d="M1280 2367 c0 -10 -6 -20 -14 -23 -40 -15 -22 -119 25 -145 21 -11
22 -10 17 68 -2 43 -10 87 -16 98 -10 18 -11 18 -12 2z"/>
<path d="M1310 2113 c0 -5 -11 -20 -25 -35 -23 -25 -24 -28 -8 -36 10 -5 25
-7 33 -3 17 7 25 67 10 76 -6 3 -10 2 -10 -2z"/>
<path d="M2900 2011 c0 -6 5 -13 10 -16 6 -3 10 1 10 9 0 9 -4 16 -10 16 -5 0
-10 -4 -10 -9z"/>
<path d="M1480 1835 c-6 -16 -9 -34 -6 -42 3 -7 -1 -13 -9 -13 -11 0 -15 -12
-15 -41 0 -36 2 -41 20 -36 18 4 20 0 20 -35 0 -44 18 -68 49 -68 14 0 21 -6
21 -20 0 -28 13 -25 27 7 9 19 10 29 2 34 -6 3 -8 16 -5 27 4 11 2 23 -4 27
-5 3 -10 19 -10 36 0 35 -34 110 -60 134 -19 17 -20 16 -30 -10z"/>
<path d="M1472 1611 c4 -13 18 -16 19 -4 0 4 -5 9 -11 12 -7 2 -11 -2 -8 -8z"/>
<path d="M1510 1580 c-20 -12 -5 -24 16 -12 9 5 12 12 7 15 -5 3 -15 2 -23 -3z"/>
<path d="M1545 1460 c3 -5 11 -10 16 -10 6 0 7 5 4 10 -3 6 -11 10 -16 10 -6
0 -7 -4 -4 -10z"/>
<path d="M2180 2160 c0 -5 5 -10 10 -10 6 0 10 5 10 10 0 6 -4 10 -10 10 -5 0
-10 -4 -10 -10z"/>
<path d="M2170 2131 c-18 -12 -13 -17 24 -27 24 -6 27 -4 24 12 -4 22 -26 28
-48 15z"/>
<path d="M2880 1320 c0 -5 5 -10 11 -10 5 0 7 5 4 10 -3 6 -8 10 -11 10 -2 0
-4 -4 -4 -10z"/>
<path d="M2850 1070 c0 -5 5 -10 10 -10 6 0 10 5 10 10 0 6 -4 10 -10 10 -5 0
-10 -4 -10 -10z"/>
<path d="M2800 954 c0 -8 5 -12 10 -9 6 3 10 10 10 16 0 5 -4 9 -10 9 -5 0
-10 -7 -10 -16z"/>
</g>
</svg>
